# xmcd
#
# Track frame offsets:
#	150
#	13353
#	26315
#	34597
#	47371
#	57145
#	70495
#	79533
#	90927
#	98125
#	109663
#	120669
#	133205
#	138635
#	150005
#	161187
#	167981
#	180667
#	192590
#
# Disc length: 3505 seconds
#
# Revision: 0
# Processed by: cddbd v1.5.2PL0 Copyright (c) Steve Scherf et al.
# Submitted via: EasyCDDAExtractor 16.0.1.1
#
DISCID=f50daf13
DTITLE=Carolina Cotton - Yodeling Blonde Bombshell vol 1
DYEAR=2005
DGENRE=Yodeling
TTITLE0=Three Miles South Of Cash (In Arkansas)
TTITLE1=I Love To Yodel
TTITLE2=What's The Matter With You
TTITLE3=Singing On The Trail
TTITLE4=You And My Old Guitar
TTITLE5=Mockingbird Yodel
TTITLE6=Mama To Quiero
TTITLE7=I Betcha I Getcha
TTITLE8=Tennessee Saturday Night
TTITLE9=Cattle Call
TTITLE10=You Always Keep Me In Hot Water
TTITLE11=You're Gettin' A Good Girl
TTITLE12=Rancho Grande
TTITLE13=Cause I'm In Love
TTITLE14=Yadel Yodel Yodel
TTITLE15=I'm Gonna Round Up My Blues
TTITLE16=Tater Pie
TTITLE17=Nola
TTITLE18=Carolina Cotton Calls (#88)
EXTD=
EXTT0=
EXTT1=
EXTT2=
EXTT3=
EXTT4=
EXTT5=
EXTT6=
EXTT7=
EXTT8=
EXTT9=
EXTT10=
EXTT11=
EXTT12=
EXTT13=
EXTT14=
EXTT15=
EXTT16=
EXTT17=
EXTT18=
PLAYORDER=
